# xmcd
#
# Track frame offsets:
#	150
#	19547
#	35672
#	54360
#	68115
#	83947
#	101445
#	117805
#	130175
#	144895
#	163010
#	179677
#	193392
#	207790
#
# Disc length: 3000 seconds
#
# Revision: 1
# Processed by: cddbd v1.5.1PL0 Copyright (c) Steve Scherf et al.
# Submitted via: audiograbber 1.80
#
DISCID=c00bb60e
DTITLE=Various Artist - Mis värvi on armastus
DYEAR=1900
DGENRE=
TTITLE0=Karavan - Suvepidu
TTITLE1=Tarmo Pihlap - Metsateel
TTITLE2=Anne Veski - Lainete tiivul
TTITLE3=Vello Orumets - See aeg on suurem
TTITLE4=Marju Länik - Vajan su kätt
TTITLE5=Mait Maltis - Marina
TTITLE6=Mati Nuude - Mamie Blue
TTITLE7=Anne Veski - Suveaeg, suveöö
TTITLE8=Tarmo Pihlap - Sind leida võin
TTITLE9=Mait Maltis - Tule lähemale
TTITLE10=Mati Nuude - Tahan olla sulle hell
TTITLE11=Marju Länik - Vasta, kui küsin
TTITLE12=Vello Orumets - Merevaik
TTITLE13=Karavan - Lugu 14
EXTD=
EXTT0=
EXTT1=
EXTT2=
EXTT3=
EXTT4=
EXTT5=
EXTT6=
EXTT7=
EXTT8=
EXTT9=
EXTT10=
EXTT11=
EXTT12=
EXTT13=
PLAYORDER=
